<?xml version="1.0" standalone="no"?>
<!DOCTYPE svg PUBLIC "-//W3C//DTD SVG 20010904//EN"
 "http://www.w3.org/TR/2001/REC-SVG-20010904/DTD/svg10.dtd">
<svg version="1.0" xmlns="http://www.w3.org/2000/svg"
 width="707.000000pt" height="707.000000pt" viewBox="0 0 707.000000 707.000000"
 preserveAspectRatio="xMidYMid meet">
<metadata>
Created by potrace 1.14, written by Peter Selinger 2001-2017
</metadata>
<g transform="translate(0.000000,707.000000) scale(0.100000,-0.100000)"
fill="#000000" stroke="none">
<path d="M3300 7064 c-528 -46 -928 -156 -1361 -375 -998 -504 -1705 -1459
-1888 -2554 -38 -229 -46 -327 -46 -595 0 -480 73 -870 242 -1295 361 -910
1078 -1627 1988 -1988 425 -169 815 -242 1295 -242 480 0 870 73 1295 242 910
361 1627 1078 1988 1988 169 424 242 816 242 1295 0 479 -73 871 -242 1295
-321 808 -920 1464 -1692 1854 -381 192 -731 298 -1176 357 -105 14 -551 26
-645 18z m1804 -1309 c162 -34 279 -159 305 -322 5 -35 19 -329 31 -655 12
-326 23 -603 26 -614 2 -14 14 -23 34 -28 24 -4 35 -15 50 -48 17 -38 20 -67
20 -233 0 -104 -5 -207 -10 -227 -6 -21 -24 -47 -40 -60 l-30 -23 20 -566 c19
-560 19 -613 -10 -720 -17 -63 -64 -162 -102 -217 l-33 -47 -5 -275 c-6 -321
-9 -336 -95 -379 -46 -24 -54 -25 -259 -25 -237 -1 -273 4 -316 41 -54 45 -63
75 -68 221 l-5 132 -1088 0 -1089 0 0 -135 c0 -167 -14 -204 -88 -238 -44 -19
-64 -21 -277 -21 -265 0 -286 5 -332 75 l-28 42 -5 281 -5 281 -33 50 c-47 71
-80 145 -104 233 -27 95 -27 215 -5 836 l16 428 -34 32 c-18 18 -36 43 -40 57
-3 14 -5 119 -3 234 3 201 4 211 26 243 15 21 32 32 48 32 20 0 24 5 24 32 0
176 53 1236 64 1288 33 151 139 257 294 294 87 22 3045 22 3146 1z"/>
<path d="M3133 5560 c-48 -29 -65 -101 -39 -165 27 -64 34 -65 441 -65 411 0
408 0 440 71 28 62 4 143 -51 167 -17 9 -136 12 -392 12 -346 0 -369 -1 -399
-20z"/>
<path d="M3025 5149 c-181 -6 -693 -35 -936 -53 -75 -5 -129 -34 -157 -85 -23
-41 -23 -43 -39 -746 -16 -665 -16 -708 0 -759 24 -75 84 -128 170 -150 123
-32 521 -84 832 -108 182 -14 1038 -15 1125 -2 52 8 55 11 57 39 15 179 116
329 271 403 65 31 86 36 173 40 84 4 109 1 170 -18 144 -47 261 -164 308 -312
7 -21 15 -38 17 -38 18 0 86 45 111 73 66 75 66 76 60 579 -7 573 -27 964 -53
1006 -29 51 -83 73 -197 82 -56 5 -183 16 -282 24 -380 33 -1087 44 -1630 25z"/>
<path d="M4460 3689 c-169 -33 -326 -198 -348 -367 -5 -34 -6 -65 -3 -67 10
-6 409 33 646 63 l220 28 -3 28 c-9 85 -131 231 -232 278 -95 45 -183 56 -280
37z"/>
<path d="M2140 2947 c-175 -61 -271 -219 -240 -394 14 -83 39 -133 96 -190
180 -179 495 -110 579 128 24 65 21 181 -5 251 -28 75 -98 149 -175 185 -48
22 -76 28 -140 30 -44 1 -96 -4 -115 -10z"/>
<path d="M4723 2946 c-94 -31 -173 -97 -216 -181 -45 -89 -43 -215 7 -312 132
-261 503 -253 628 14 39 83 42 186 8 275 -29 77 -103 158 -172 188 -66 29
-192 37 -255 16z"/>
</g>
</svg>
